<svg xmlns="http://www.w3.org/2000/svg" xmlns:xlink="http://www.w3.org/1999/xlink" width="25" height="25" viewBox="0 0 25 25">
  <defs>
    <linearGradient id="linear-gradient" x1="0.5" y1="1" x2="0.5" gradientUnits="objectBoundingBox">
      <stop offset="0" stop-color="#4565ad"/>
      <stop offset="1" stop-color="#a8589e"/>
    </linearGradient>
  </defs>
  <g id="tabbar_2" transform="translate(-3988 1322.024)">
    <rect id="Rectangle_2845" data-name="Rectangle 2845" width="25" height="24.976" transform="translate(3988 -1322)" opacity="0" fill="url(#linear-gradient)"/>
    <path id="calendar" d="M.009,8.457A6.513,6.513,0,0,1,1.078,4.531l.2-.284.016-.016.138-.159h0l.145-.162L1.592,3.9A5.212,5.212,0,0,1,2.5,3.167l.1-.058h0l.093-.054.219-.123c.089-.041.185-.09.274-.131.065-.024.129-.057.194-.081.122-.05.251-.1.38-.14a.672.672,0,0,1,.14-.049l.052-.021h0L4,2.49a9.437,9.437,0,0,1,1.809-.346l-.063.007V.909a.92.92,0,0,1,1.84,0V4.835a.92.92,0,0,1-1.84,0V3.928a6.172,6.172,0,0,0-1.758.439C2.541,5,1.85,6.218,1.788,8.143v.793H21.222v-.5a5.4,5.4,0,0,0-.534-2.58A3.338,3.338,0,0,0,19,4.354a5.963,5.963,0,0,0-1.43-.4l-.319-.038v.916a.92.92,0,0,1-1.84,0V3.847H7.6V2.062h7.81V.9A.92.92,0,0,1,17.25.891V2.145a9.063,9.063,0,0,1,1.325.228l.433.12a.733.733,0,0,1,.11.032c.048.017.089.033.137.049.128.041.248.09.372.14.071.024.137.057.193.081a2.735,2.735,0,0,1,.274.131l.227.123c.068.036.121.078.178.111a5.524,5.524,0,0,1,.7.527l.215.2.01.017.15.156h0l.141.164.008.016A6.511,6.511,0,0,1,23,8.105l-.009.348v.484H23V18.62c0,4.222-2.413,6.356-7.195,6.356H7.184C2.413,24.976,0,22.842,0,18.62H0V8.936H.009ZM16.76,17.79a1.059,1.059,0,0,0-1.06,1.062,1.073,1.073,0,0,0,1.064,1.061,1.061,1.061,0,1,0,0-2.122Zm-5.254-.007a1.07,1.07,0,1,0,1.053,1.061A1.071,1.071,0,0,0,11.506,17.783Zm-5.265,0a1.067,1.067,0,0,0,0,2.133,1.067,1.067,0,0,0,0-2.133Zm10.518-4.521a1.061,1.061,0,1,0,1.053,1.061,1.05,1.05,0,0,0-1.053-1.065ZM11.5,13.251a1.071,1.071,0,1,0,1.053,1.062A1.072,1.072,0,0,0,11.5,13.251Zm-5.254,0a1.069,1.069,0,0,0-1.064,1.072,1.053,1.053,0,1,0,1.07-1.076Z" transform="translate(3989 -1322)" fill="url(#linear-gradient)"/>
  </g>
</svg>
