<svg xmlns="http://www.w3.org/2000/svg" xmlns:xlink="http://www.w3.org/1999/xlink" width="25" height="25" viewBox="0 0 25 25">
  <defs>
    <linearGradient id="linear-gradient" x1="0.5" x2="0.5" y2="1" gradientUnits="objectBoundingBox">
      <stop offset="0" stop-color="#a6599f"/>
      <stop offset="1" stop-color="#4865ad"/>
    </linearGradient>
  </defs>
  <g id="tabbar_5" transform="translate(-6678 11818)">
    <g id="Rectangle_2865" data-name="Rectangle 2865" transform="translate(6678 -11818)" fill="#fff" stroke="#707070" stroke-width="1" opacity="0">
      <rect width="25" height="25" stroke="none"/>
      <rect x="0.5" y="0.5" width="24" height="24" fill="none"/>
    </g>
    <g id="map" transform="translate(6694.5 -11816.993)">
      <path id="Subtraction_1" data-name="Subtraction 1" d="M11,25a1.146,1.146,0,0,1-.61-.175,32.881,32.881,0,0,1-5.138-4.188,22.133,22.133,0,0,1-3.571-4.53A11.422,11.422,0,0,1,0,10.416C0,4.673,4.935,0,11,0S22,4.673,22,10.416a11.428,11.428,0,0,1-1.68,5.692,22.29,22.29,0,0,1-3.569,4.53,33.663,33.663,0,0,1-5.141,4.188A1.142,1.142,0,0,1,11,25ZM11,7.291a3.22,3.22,0,0,0-3.3,3.125A3.221,3.221,0,0,0,11,13.542a3.22,3.22,0,0,0,3.3-3.126A3.22,3.22,0,0,0,11,7.291Z" transform="translate(-15 -1.007)" fill="url(#linear-gradient)"/>
    </g>
  </g>
</svg>
