<svg xmlns="http://www.w3.org/2000/svg" xmlns:xlink="http://www.w3.org/1999/xlink" width="34" height="35.898" viewBox="0 0 34 35.898">
  <defs>
    <linearGradient id="linear-gradient" x1="0.5" x2="0.5" y2="1" gradientUnits="objectBoundingBox">
      <stop offset="0" stop-color="#a25aa0"/>
      <stop offset="1" stop-color="#4c64ac"/>
    </linearGradient>
  </defs>
  <g id="tabbar_3" transform="translate(-6714 11827.5)">
    <g id="Rectangle_2866" data-name="Rectangle 2866" transform="translate(6714 -11827)" fill="#fff" stroke="#707070" stroke-width="1" opacity="0">
      <rect width="34" height="34" stroke="none"/>
      <rect x="0.5" y="0.5" width="33" height="33" fill="none"/>
    </g>
    <g id="Group_11514" data-name="Group 11514" transform="translate(6718 -11827)">
      <path id="Union_7" data-name="Union 7" d="M-6737.084,11860.878a1.222,1.222,0,0,1-.732-1.581l4.346-10.659a1.263,1.263,0,0,1,.224-.354,6.719,6.719,0,0,1-2.617-2.321,3.41,3.41,0,0,1-.241-3.021l1.221-3.2a1.42,1.42,0,0,1,1.348-.86h7.162a1.482,1.482,0,0,1,1.173.548,1.14,1.14,0,0,1,.161,1.167l-3.444,8.139a1.271,1.271,0,0,1-.182.285,7.288,7.288,0,0,1,3.265,2.819,3.433,3.433,0,0,1-.023,3.253c-2.516,4.986-9.469,5.787-10.9,5.9a1.423,1.423,0,0,1-.158.009A1.567,1.567,0,0,1-6737.084,11860.878Zm.607-1.146c.006-.007,7.355-.405,9.755-5.156,1.828-3.619-5.409-5.507-5.409-5.507Zm1.721-16.385c-1.259,3.3,4.938,4.941,4.938,4.941l3.444-8.138h-7.162Zm-15.429,17.53a1.221,1.221,0,0,1-.729-1.581l4.343-10.659a1.172,1.172,0,0,1,.227-.354,6.736,6.736,0,0,1-2.614-2.321,3.4,3.4,0,0,1-.238-3.021l1.218-3.2a1.428,1.428,0,0,1,1.352-.86h7.156a1.481,1.481,0,0,1,1.17.548,1.147,1.147,0,0,1,.164,1.167l-3.444,8.139a1.237,1.237,0,0,1-.185.288,7.284,7.284,0,0,1,3.259,2.816,3.451,3.451,0,0,1-.023,3.253c-2.516,4.986-9.463,5.787-10.889,5.9a1.364,1.364,0,0,1-.155.009A1.571,1.571,0,0,1-6750.185,11860.878Zm.61-1.146c0-.007,7.347-.405,9.746-5.156,1.828-3.619-5.4-5.507-5.4-5.507Zm1.727-16.385c-1.265,3.3,4.933,4.941,4.933,4.941l3.444-8.138h-7.156Zm13.041-11.418a4.936,4.936,0,0,1,4.93-4.93,4.935,4.935,0,0,1,4.929,4.93,4.935,4.935,0,0,1-4.929,4.929A4.935,4.935,0,0,1-6734.807,11831.93Zm1.36,0a3.572,3.572,0,0,0,3.569,3.571,3.572,3.572,0,0,0,3.572-3.571,3.571,3.571,0,0,0-3.572-3.572A3.571,3.571,0,0,0-6733.446,11831.93Zm-14.461,0a4.936,4.936,0,0,1,4.93-4.93,4.935,4.935,0,0,1,4.929,4.93,4.935,4.935,0,0,1-4.929,4.929A4.935,4.935,0,0,1-6747.907,11831.93Zm1.36,0a3.572,3.572,0,0,0,3.569,3.571,3.569,3.569,0,0,0,3.569-3.571,3.568,3.568,0,0,0-3.569-3.572A3.571,3.571,0,0,0-6746.547,11831.93Z" transform="translate(6751 -11827)" stroke="rgba(0,0,0,0)" stroke-miterlimit="10" stroke-width="1" fill="url(#linear-gradient)"/>
    </g>
  </g>
</svg>
